<svg xmlns="http://www.w3.org/2000/svg" viewBox="0 0 680 680">
<rect width="680" height="680" fill="#0f1420"/>
<text x="340" y="28" fill="#e8eef7" font-size="17" text-anchor="middle" font-family="Segoe UI,Arial">DPP4-centred network pharmacology (15 nodes / 32 edges)</text>
<line x1="340" y1="150" x2="452" y2="186" stroke="#4361ee" stroke-width="1.04" stroke-dasharray="0" opacity="0.75"/>
<line x1="340" y1="150" x2="521" y2="281" stroke="#4361ee" stroke-width="1.57" stroke-dasharray="0" opacity="0.75"/>
<line x1="340" y1="150" x2="521" y2="399" stroke="#4361ee" stroke-width="1.70" stroke-dasharray="0" opacity="0.75"/>
<line x1="340" y1="150" x2="452" y2="494" stroke="#4361ee" stroke-width="2.16" stroke-dasharray="0" opacity="0.75"/>
<line x1="340" y1="150" x2="340" y2="340" stroke="#4361ee" stroke-width="2.18" stroke-dasharray="0" opacity="0.75"/>
<line x1="521" y1="399" x2="340" y2="530" stroke="#4361ee" stroke-width="1.08" stroke-dasharray="0" opacity="0.75"/>
<line x1="521" y1="399" x2="452" y2="186" stroke="#4361ee" stroke-width="1.85" stroke-dasharray="0" opacity="0.75"/>
<line x1="521" y1="399" x2="521" y2="281" stroke="#4361ee" stroke-width="1.89" stroke-dasharray="0" opacity="0.75"/>
<line x1="521" y1="399" x2="340" y2="340" stroke="#4361ee" stroke-width="2.16" stroke-dasharray="0" opacity="0.75"/>
<line x1="521" y1="399" x2="452" y2="494" stroke="#4361ee" stroke-width="2.20" stroke-dasharray="0" opacity="0.75"/>
<line x1="228" y1="494" x2="340" y2="340" stroke="#4361ee" stroke-width="2.16" stroke-dasharray="0" opacity="0.75"/>
<line x1="228" y1="494" x2="159" y2="399" stroke="#4361ee" stroke-width="2.16" stroke-dasharray="0" opacity="0.75"/>
<line x1="340" y1="340" x2="452" y2="494" stroke="#4361ee" stroke-width="2.13" stroke-dasharray="0" opacity="0.75"/>
<line x1="340" y1="340" x2="159" y2="281" stroke="#4361ee" stroke-width="2.13" stroke-dasharray="0" opacity="0.75"/>
<line x1="340" y1="340" x2="521" y2="281" stroke="#4361ee" stroke-width="2.17" stroke-dasharray="0" opacity="0.75"/>
<line x1="340" y1="340" x2="159" y2="399" stroke="#4361ee" stroke-width="2.17" stroke-dasharray="0" opacity="0.75"/>
<line x1="340" y1="340" x2="452" y2="186" stroke="#4361ee" stroke-width="2.18" stroke-dasharray="0" opacity="0.75"/>
<line x1="340" y1="340" x2="340" y2="530" stroke="#4361ee" stroke-width="2.20" stroke-dasharray="0" opacity="0.75"/>
<line x1="340" y1="340" x2="228" y2="186" stroke="#4361ee" stroke-width="2.20" stroke-dasharray="0" opacity="0.75"/>
<line x1="228" y1="186" x2="452" y2="186" stroke="#4361ee" stroke-width="1.23" stroke-dasharray="0" opacity="0.75"/>
<line x1="159" y1="281" x2="340" y2="530" stroke="#4361ee" stroke-width="2.14" stroke-dasharray="0" opacity="0.75"/>
<line x1="452" y1="494" x2="521" y2="281" stroke="#4361ee" stroke-width="1.80" stroke-dasharray="0" opacity="0.75"/>
<line x1="452" y1="494" x2="340" y2="530" stroke="#4361ee" stroke-width="1.99" stroke-dasharray="0" opacity="0.75"/>
<line x1="452" y1="494" x2="452" y2="186" stroke="#4361ee" stroke-width="2.01" stroke-dasharray="0" opacity="0.75"/>
<line x1="521" y1="281" x2="452" y2="186" stroke="#4361ee" stroke-width="2.05" stroke-dasharray="0" opacity="0.75"/>
<line x1="159" y1="399" x2="340" y2="530" stroke="#4361ee" stroke-width="1.04" stroke-dasharray="0" opacity="0.75"/>
<line x1="340" y1="340" x2="159" y2="399" stroke="#f4a261" stroke-width="1.60" stroke-dasharray="5 4" opacity="0.75"/>
<line x1="340" y1="340" x2="228" y2="494" stroke="#f4a261" stroke-width="1.60" stroke-dasharray="5 4" opacity="0.75"/>
<line x1="340" y1="340" x2="640" y2="340" stroke="#f4a261" stroke-width="1.60" stroke-dasharray="5 4" opacity="0.75"/>
<line x1="340" y1="340" x2="340" y2="640" stroke="#f4a261" stroke-width="1.60" stroke-dasharray="5 4" opacity="0.75"/>
<line x1="340" y1="340" x2="40" y2="340" stroke="#f4a261" stroke-width="1.60" stroke-dasharray="5 4" opacity="0.75"/>
<line x1="340" y1="340" x2="340" y2="40" stroke="#f4a261" stroke-width="1.60" stroke-dasharray="5 4" opacity="0.75"/>
<circle cx="340" cy="340" r="16" fill="#e6194b" stroke="#0f1420" stroke-width="2"/>
<text x="340" y="369" fill="#cdd6e4" font-size="11" text-anchor="middle" font-family="Segoe UI,Arial">DPP4</text>
<circle cx="340" cy="150" r="13" fill="#4361ee" stroke="#0f1420" stroke-width="2"/>
<text x="340" y="176" fill="#cdd6e4" font-size="11" text-anchor="middle" font-family="Segoe UI,Arial">CAV1</text>
<circle cx="452" cy="186" r="13" fill="#4361ee" stroke="#0f1420" stroke-width="2"/>
<text x="452" y="212" fill="#cdd6e4" font-size="11" text-anchor="middle" font-family="Segoe UI,Arial">PTPRC</text>
<circle cx="521" cy="281" r="13" fill="#4361ee" stroke="#0f1420" stroke-width="2"/>
<text x="521" y="307" fill="#cdd6e4" font-size="11" text-anchor="middle" font-family="Segoe UI,Arial">CXCR4</text>
<circle cx="521" cy="399" r="13" fill="#4361ee" stroke="#0f1420" stroke-width="2"/>
<text x="521" y="425" fill="#cdd6e4" font-size="11" text-anchor="middle" font-family="Segoe UI,Arial">FN1</text>
<circle cx="452" cy="494" r="13" fill="#4361ee" stroke="#0f1420" stroke-width="2"/>
<text x="452" y="520" fill="#cdd6e4" font-size="11" text-anchor="middle" font-family="Segoe UI,Arial">ITGB1</text>
<circle cx="340" cy="530" r="13" fill="#4361ee" stroke="#0f1420" stroke-width="2"/>
<text x="340" y="556" fill="#cdd6e4" font-size="11" text-anchor="middle" font-family="Segoe UI,Arial">ACE2</text>
<circle cx="228" cy="494" r="13" fill="#4361ee" stroke="#0f1420" stroke-width="2"/>
<text x="228" y="520" fill="#cdd6e4" font-size="11" text-anchor="middle" font-family="Segoe UI,Arial">GIP</text>
<circle cx="159" cy="399" r="13" fill="#4361ee" stroke="#0f1420" stroke-width="2"/>
<text x="159" y="425" fill="#cdd6e4" font-size="11" text-anchor="middle" font-family="Segoe UI,Arial">GCG</text>
<circle cx="159" cy="281" r="13" fill="#4361ee" stroke="#0f1420" stroke-width="2"/>
<text x="159" y="307" fill="#cdd6e4" font-size="11" text-anchor="middle" font-family="Segoe UI,Arial">PRCP</text>
<circle cx="228" cy="186" r="13" fill="#4361ee" stroke="#0f1420" stroke-width="2"/>
<text x="228" y="212" fill="#cdd6e4" font-size="11" text-anchor="middle" font-family="Segoe UI,Arial">ADA</text>
<circle cx="640" cy="340" r="11" fill="#f4a261" stroke="#0f1420" stroke-width="2"/>
<text x="640" y="364" fill="#cdd6e4" font-size="11" text-anchor="middle" font-family="Segoe UI,Arial">CXCL12</text>
<circle cx="340" cy="640" r="11" fill="#f4a261" stroke="#0f1420" stroke-width="2"/>
<text x="340" y="664" fill="#cdd6e4" font-size="11" text-anchor="middle" font-family="Segoe UI,Arial">NPY</text>
<circle cx="40" cy="340" r="11" fill="#f4a261" stroke="#0f1420" stroke-width="2"/>
<text x="40" y="364" fill="#cdd6e4" font-size="11" text-anchor="middle" font-family="Segoe UI,Arial">PYY</text>
<circle cx="340" cy="40" r="11" fill="#f4a261" stroke="#0f1420" stroke-width="2"/>
<text x="340" y="64" fill="#cdd6e4" font-size="11" text-anchor="middle" font-family="Segoe UI,Arial">TAC1</text>
<circle cx="20" cy="620" r="7" fill="#e6194b"/><text x="34" y="624" fill="#cdd6e4" font-size="11" font-family="Segoe UI,Arial">DPP4 target</text>
<circle cx="20" cy="640" r="7" fill="#4361ee"/><text x="34" y="644" fill="#cdd6e4" font-size="11" font-family="Segoe UI,Arial">STRING functional neighbour</text>
<circle cx="20" cy="660" r="7" fill="#f4a261"/><text x="34" y="664" fill="#cdd6e4" font-size="11" font-family="Segoe UI,Arial">Literature DPP4 substrate</text>
<line x1="170" y1="620" x2="205" y2="620" stroke="#4361ee" stroke-width="2"/><text x="212" y="624" fill="#cdd6e4" font-size="11" font-family="Segoe UI,Arial">functional (STRING)</text>
<line x1="170" y1="640" x2="205" y2="640" stroke="#f4a261" stroke-width="2" stroke-dasharray="5 4"/><text x="212" y="644" fill="#cdd6e4" font-size="11" font-family="Segoe UI,Arial">cleavage substrate (lit.)</text>
</svg>