<svg xmlns="http://www.w3.org/2000/svg" width="560" height="388" font-family="DejaVu Sans, Arial, sans-serif" font-size="11">
<rect width="560" height="388" fill="#ffffff"/>
<text x="70" y="26" font-size="15" font-weight="bold">LPPGP / APPSQ residue-level contact fingerprint (minimized complex, ≤4.5 Å)</text>
<text x="70" y="44" font-size="11" fill="#555">cell fill = contact count (pale→deep); ★ = polar/H-bond; border color = residue role</text>
<rect x="64" y="60" width="372" height="56" fill="#fafafa" stroke="#ddd"/>
<text x="58" y="92.0" text-anchor="end" font-weight="bold">LPPGP</text>
<rect x="64" y="142" width="372" height="56" fill="#fafafa" stroke="#ddd"/>
<text x="58" y="174.0" text-anchor="end" font-weight="bold">APPSQ</text>
<line x1="70" y1="60" x2="70" y2="198" stroke="#eee"/>
<circle cx="93.0" cy="170.0" r="6.5" fill="#fceee3" stroke="#2980b9" stroke-width="2"/>
<text x="93.0" y="174.0" text-anchor="middle" font-size="10" fill="#222">1</text>
<text x="93.0" y="212" text-anchor="middle" font-size="9" fill="#2980b9">GLU145</text>
<line x1="116" y1="60" x2="116" y2="198" stroke="#eee"/>
<circle cx="139.0" cy="88.0" r="15.1" fill="#ca4946" stroke="#c0392b" stroke-width="2"/>
<text x="139.0" y="92.0" text-anchor="middle" font-size="10" fill="#222">19</text>
<text x="139.0" y="70.0" text-anchor="middle" font-size="12" fill="#c0392b" font-weight="bold">★</text>
<circle cx="139.0" cy="170.0" r="19.0" fill="#b30000" stroke="#c0392b" stroke-width="2"/>
<text x="139.0" y="174.0" text-anchor="middle" font-size="10" fill="#222">27</text>
<text x="139.0" y="152.0" text-anchor="middle" font-size="12" fill="#c0392b" font-weight="bold">★</text>
<text x="139.0" y="212" text-anchor="middle" font-size="9" fill="#c0392b">GLU146</text>
<line x1="162" y1="60" x2="162" y2="198" stroke="#eee"/>
<circle cx="185.0" cy="88.0" r="6.5" fill="#fceee3" stroke="#2980b9" stroke-width="2"/>
<text x="185.0" y="92.0" text-anchor="middle" font-size="10" fill="#222">1</text>
<circle cx="185.0" cy="170.0" r="9.9" fill="#e8aea6" stroke="#2980b9" stroke-width="2"/>
<text x="185.0" y="174.0" text-anchor="middle" font-size="10" fill="#222">8</text>
<text x="185.0" y="212" text-anchor="middle" font-size="9" fill="#2980b9">PRO149</text>
<line x1="208" y1="60" x2="208" y2="198" stroke="#eee"/>
<circle cx="231.0" cy="88.0" r="10.3" fill="#e6a59d" stroke="#e67e22" stroke-width="2"/>
<text x="231.0" y="92.0" text-anchor="middle" font-size="10" fill="#222">9</text>
<text x="231.0" y="212" text-anchor="middle" font-size="9" fill="#e67e22">TYR166</text>
<line x1="254" y1="60" x2="254" y2="198" stroke="#eee"/>
<circle cx="277.0" cy="88.0" r="6.5" fill="#fceee3" stroke="#e67e22" stroke-width="2"/>
<text x="277.0" y="92.0" text-anchor="middle" font-size="10" fill="#222">1</text>
<text x="277.0" y="212" text-anchor="middle" font-size="9" fill="#e67e22">TYR173</text>
<line x1="300" y1="60" x2="300" y2="198" stroke="#eee"/>
<circle cx="323.0" cy="88.0" r="7.9" fill="#f4d2c9" stroke="#2980b9" stroke-width="2"/>
<text x="323.0" y="92.0" text-anchor="middle" font-size="10" fill="#222">4</text>
<text x="323.0" y="212" text-anchor="middle" font-size="9" fill="#2980b9">LYS175</text>
<line x1="346" y1="60" x2="346" y2="198" stroke="#eee"/>
<circle cx="369.0" cy="170.0" r="8.4" fill="#f1c9c0" stroke="#2980b9" stroke-width="2"/>
<text x="369.0" y="174.0" text-anchor="middle" font-size="10" fill="#222">5</text>
<text x="369.0" y="152.0" text-anchor="middle" font-size="12" fill="#c0392b" font-weight="bold">★</text>
<text x="369.0" y="212" text-anchor="middle" font-size="9" fill="#2980b9">ARG184</text>
<line x1="392" y1="60" x2="392" y2="198" stroke="#eee"/>
<circle cx="415.0" cy="88.0" r="6.5" fill="#fceee3" stroke="#7f8c8d" stroke-width="2"/>
<text x="415.0" y="92.0" text-anchor="middle" font-size="10" fill="#222">1</text>
<text x="415.0" y="70.0" text-anchor="middle" font-size="12" fill="#c0392b" font-weight="bold">★</text>
<text x="415.0" y="212" text-anchor="middle" font-size="9" fill="#7f8c8d">NAG1201</text>
<line x1="70" y1="198" x2="70" y2="202" stroke="#999"/>
<text x="70" y="238" font-weight="bold">Residue role:</text>
<rect x="70" y="248" width="12" height="12" fill="#fff" stroke="#c0392b" stroke-width="2"/>
<text x="86" y="258" font-size="10">catalytic core (Glu146/Arg147)</text>
<rect x="320" y="248" width="12" height="12" fill="#fff" stroke="#e67e22" stroke-width="2"/>
<text x="336" y="258" font-size="10">S1/S2 pocket</text>
<rect x="70" y="268" width="12" height="12" fill="#fff" stroke="#7f8c8d" stroke-width="2"/>
<text x="86" y="278" font-size="10">glycan bias (NAG/FUC)</text>
<rect x="320" y="268" width="12" height="12" fill="#fff" stroke="#2980b9" stroke-width="2"/>
<text x="336" y="278" font-size="10">interface / pocket wall</text>
<rect x="70" y="288" width="12" height="12" fill="#fff" stroke="#16a085" stroke-width="2"/>
<text x="86" y="298" font-size="10">pocket residue</text>
<text x="70" y="326" font-size="10" fill="#777">★ polar/H-bond contact; circle area encodes number of contacting atom pairs (pale→deep).</text>
</svg>