<svg xmlns="http://www.w3.org/2000/svg" width="760" height="460" viewBox="0 0 760 460" font-family="Arial, Helvetica, sans-serif">
<rect width="760" height="460" fill="#ffffff"/>
<text x="380.0" y="30" text-anchor="middle" font-size="18" font-weight="bold" fill="#1a1a1a">Tier0 length-debiased benchmark validation (ROC-AUC)</text>
<text x="380.0" y="52" text-anchor="middle" font-size="12" fill="#555">50x repeated length-matched sampling + stratified 5-fold CV (mean +/- SD)</text>
<line x1="90" y1="360.0" x2="710" y2="360.0" stroke="#e0e0e0" stroke-width="1"/>
<text x="82" y="364.0" text-anchor="end" font-size="11" fill="#555">0.40</text>
<line x1="90" y1="309.1" x2="710" y2="309.1" stroke="#e0e0e0" stroke-width="1"/>
<text x="82" y="313.1" text-anchor="end" font-size="11" fill="#555">0.50</text>
<line x1="90" y1="258.2" x2="710" y2="258.2" stroke="#e0e0e0" stroke-width="1"/>
<text x="82" y="262.2" text-anchor="end" font-size="11" fill="#555">0.60</text>
<line x1="90" y1="207.3" x2="710" y2="207.3" stroke="#e0e0e0" stroke-width="1"/>
<text x="82" y="211.3" text-anchor="end" font-size="11" fill="#555">0.70</text>
<line x1="90" y1="156.4" x2="710" y2="156.4" stroke="#e0e0e0" stroke-width="1"/>
<text x="82" y="160.4" text-anchor="end" font-size="11" fill="#555">0.80</text>
<line x1="90" y1="105.5" x2="710" y2="105.5" stroke="#e0e0e0" stroke-width="1"/>
<text x="82" y="109.5" text-anchor="end" font-size="11" fill="#555">0.90</text>
<line x1="90" y1="309.1" x2="710" y2="309.1" stroke="#333" stroke-width="1.2" stroke-dasharray="5,4"/>
<text x="706" y="303.1" text-anchor="end" font-size="10" fill="#333">AUC = 0.5 (chance)</text>
<line x1="90" y1="360" x2="710" y2="360" stroke="#333" stroke-width="1.5"/>
<line x1="90" y1="80" x2="90" y2="360" stroke="#333" stroke-width="1.5"/>
<text x="34" y="220.0" text-anchor="middle" font-size="12" fill="#333" transform="rotate(-90 34 220.0)">ROC-AUC</text>
<rect x="121.0" y="113.3" width="62.0" height="246.7" fill="#7f8c8d"/>
<text x="152.0" y="105.3" text-anchor="middle" font-size="12" font-weight="bold" fill="#1a1a1a">0.884</text>
<text x="152.0" y="378.0" text-anchor="middle" font-size="10.5" fill="#333">Confounded</text>
<text x="152.0" y="391.0" text-anchor="middle" font-size="10.5" fill="#333">length baseline</text>
<rect x="245.0" y="212.1" width="62.0" height="147.9" fill="#e67e22"/>
<text x="276.0" y="204.1" text-anchor="middle" font-size="12" font-weight="bold" fill="#1a1a1a">0.691</text>
<line x1="276.0" y1="208.7" x2="276.0" y2="215.4" stroke="#333" stroke-width="1.2"/>
<line x1="271.0" y1="208.7" x2="281.0" y2="208.7" stroke="#333" stroke-width="1.2"/>
<line x1="271.0" y1="215.4" x2="281.0" y2="215.4" stroke="#333" stroke-width="1.2"/>
<text x="276.0" y="378.0" text-anchor="middle" font-size="10.5" fill="#333">Confounded</text>
<text x="276.0" y="391.0" text-anchor="middle" font-size="10.5" fill="#333">SCM</text>
<rect x="369.0" y="309.1" width="62.0" height="50.9" fill="#95a5a6"/>
<text x="400.0" y="301.1" text-anchor="middle" font-size="12" font-weight="bold" fill="#1a1a1a">0.500</text>
<text x="400.0" y="378.0" text-anchor="middle" font-size="10.5" fill="#333">Length-matched</text>
<text x="400.0" y="391.0" text-anchor="middle" font-size="10.5" fill="#333">length baseline</text>
<rect x="493.0" y="201.9" width="62.0" height="158.1" fill="#c0392b"/>
<text x="524.0" y="193.9" text-anchor="middle" font-size="12" font-weight="bold" fill="#1a1a1a">0.711</text>
<line x1="524.0" y1="193.0" x2="524.0" y2="210.7" stroke="#333" stroke-width="1.2"/>
<line x1="519.0" y1="193.0" x2="529.0" y2="193.0" stroke="#333" stroke-width="1.2"/>
<line x1="519.0" y1="210.7" x2="529.0" y2="210.7" stroke="#333" stroke-width="1.2"/>
<text x="524.0" y="378.0" text-anchor="middle" font-size="10.5" fill="#333">Length-matched</text>
<text x="524.0" y="391.0" text-anchor="middle" font-size="10.5" fill="#333">SCM</text>
<rect x="617.0" y="314.1" width="62.0" height="45.9" fill="#bdc3c7"/>
<text x="648.0" y="306.1" text-anchor="middle" font-size="12" font-weight="bold" fill="#1a1a1a">0.490</text>
<line x1="648.0" y1="297.0" x2="648.0" y2="331.2" stroke="#333" stroke-width="1.2"/>
<line x1="643.0" y1="297.0" x2="653.0" y2="297.0" stroke="#333" stroke-width="1.2"/>
<line x1="643.0" y1="331.2" x2="653.0" y2="331.2" stroke="#333" stroke-width="1.2"/>
<text x="648.0" y="378.0" text-anchor="middle" font-size="10.5" fill="#333">Length-matched</text>
<text x="648.0" y="391.0" text-anchor="middle" font-size="10.5" fill="#333">SCM (label-perm null)</text>
</svg>